
          888    d8P         d8888 8888888b.  d8b 888b    888        d8888 
          888   d8P         d88888 888   Y88b Y8P 8888b   888       d88888 
          888  d8P         d88P888 888    888     88888b  888      d88P888 
          888d88K         d88P 888 888   d88P 888 888Y88b 888     d88P 888 
          8888888b       d88P  888 8888888P"  888 888 Y88b888    d88P  888 
          888  Y88b     d88P   888 888 T88b   888 888  Y88888   d88P   888 
          888   Y88b   d8888888888 888  T88b  888 888   Y8888  d8888888888 
          888    Y88b d88P     888 888   T88b 888 888    Y888 d88P     888 
              
               The.Seventh.Seal.1957.CRITERION.DVDRip.XviD-KARiNA.avi 

Synopsis.

The Seventh Seal | Sweden | 1957 | Directed by Ingmar Bergman
                                  
Disillusioned and exhausted after a decade of battling in the Crusades, a knight (Max von Sydow) encounters Death on a desolate beach and challenges him to a fateful game of chess. Much studied, imitated, even parodied, but never outdone, Bergman’s stunning allegory of man’s search for meaning, The Seventh Seal (Det sjunde inseglet), was one of the benchmark foreign imports of America’s 1950s art-house heyday, pushing cinema’s boundaries and ushering in a new era of moviegoing.

IMdB: http://www.imdb.com/title/tt0050976/ | Rating: 8.4 / 10 (31,260 votes)
                                     
General.
                                                                  
Complete name                    : The.Seventh.Seal.1957.CRITERION.DVDRip.XviD-KARiNA.avi
Format                           : AVI
File size                        : 1.37 GiB
Duration                         : 1h 37mn
Overall bit rate                 : 2 005 Kbps
Source                           : Criterion NTSC DVD9
                                       
Video.                            

Format                           : MPEG-4 Visual
Codec ID                         : XVID
Bit rate                         : 1 889 Kbps
Width                            : 608 pixels
Height                           : 464 pixels
Display aspect ratio             : 4/3
Frame rate                       : 23.976 fps
Resolution                       : 24 bits
Colorimetry                      : 4:2:0
Scan type                        : Progressive
Bits/(Pixel*Frame)               : 0.279
Stream size                      : 1.29 GiB (94%)
Writing library                  : XviD 1.2.1 (UTC 2008-12-04)

Audio.                            

Format                           : MPEG Audio
Format version                   : Version 1
Format profile                   : Layer 3
Bit rate mode                    : Variable
Bit rate                         : 103 Kbps
Nominal bit rate                 : 160 Kbps
Channel(s)                       : 2 channels
Sampling rate                    : 48.0 KHz
Resolution                       : 16 bits
Stream size                      : 71.8 MiB (5%)
Writing library                  : LAME3.98r
Language                         : Svenska

Subtitles.

Format                           : SRT
Language                         : English

KARiNA.